<svg role="graphics-symbol" id="shaping-the-future-logo" data-name="shaping-the-future" xmlns="http://www.w3.org/2000/svg" xmlns:xlink="http://www.w3.org/1999/xlink" width="263.9" height="27.7" viewBox="0 0 263.9 27.7"> <title>Shaping the future logo</title> <path d="M55.1,19.7a2,2,0,0,0-1.7-1c-1.5,0-2.1,1.3-2.1,2.5s.6,2.5,2.1,2.5a2,2,0,0,0,1.7-1Zm7.3,5.4v2.3a.6.6,0,0,1-.5.6,6.2,6.2,0,0,1-2.5.4,4.6,4.6,0,0,1-3.1-1,.5.5,0,0,0-.8-.1,7.1,7.1,0,0,1-4.1,1.2h0c-4.4,0-6.3-3.6-6.3-7.3s1.9-7.3,6.3-7.3A5.6,5.6,0,0,1,55.8,16v-.9a.7.7,0,0,1,.7-.7h3.9a.8.8,0,0,1,.7.7v8.6c0,.4.1.7.7.7a.9.9,0,0,1,.6.7m80.8-1.6h-.9c-1.1,0-1.6-.4-1.6-1.3V19.2H143a.8.8,0,0,0,.7-.7V15.1a.7.7,0,0,0-.7-.7h-2.3V10.2a.7.7,0,0,0-.9-.7l-4.6,1.1a.7.7,0,0,0-.5.7v3.1h-1.2a.7.7,0,0,0-.7.7v3.4a.8.8,0,0,0,.7.7h1.2v4.1c0,1.9.5,3.2,1.5,4a6.2,6.2,0,0,0,3.9,1.2,13.5,13.5,0,0,0,3.3-.4.8.8,0,0,0,.5-.7V24.2a.7.7,0,0,0-.7-.7m29.4-5a1.6,1.6,0,0,0-1.4-.6,2.2,2.2,0,0,0-1.4.5,1.7,1.7,0,0,0-.5,1.4h3.6a1.5,1.5,0,0,0-.3-1.3m4.9-.6a4.6,4.6,0,0,1,.4,2.6,7.6,7.6,0,0,1-.1,1.5.7.7,0,0,1-.7.6h-7.8a2.8,2.8,0,0,0,1.4,1.2,7,7,0,0,0,2.5.5,14.8,14.8,0,0,0,3.1-.3.6.6,0,0,1,.8.6v2.6a.7.7,0,0,1-.5.7,14.2,14.2,0,0,1-4.4.6,13.2,13.2,0,0,1-4.2-.7,6.3,6.3,0,0,1-3.1-2.5,6.4,6.4,0,0,1-1.3-4.2,6.7,6.7,0,0,1,.7-3.3,6.2,6.2,0,0,1,1.8-2.3,13.4,13.4,0,0,1,2.4-1.2,10,10,0,0,1,2.4-.4,8.3,8.3,0,0,1,3.2.6,5.4,5.4,0,0,1,2.1,1.3,5.7,5.7,0,0,1,1.3,2.1m65.4-3.5h-4.6a.7.7,0,0,0-.7.7v7.7a2,2,0,0,1-1.6.7,1.4,1.4,0,0,1-1.2-1.3V15.1a.7.7,0,0,0-.7-.7h-4.6a.8.8,0,0,0-.7.7v8.1a5.5,5.5,0,0,0,1.4,3.7,4.6,4.6,0,0,0,3.9,1.6,5.8,5.8,0,0,0,4.2-1.8v.6a.7.7,0,0,0,.7.7h3.9a.8.8,0,0,0,.7-.7V15.1a.8.8,0,0,0-.7-.7m24.6,4.1a1.4,1.4,0,0,0-1.3-.6,2,2,0,0,0-1.4.5,1.8,1.8,0,0,0-.6,1.4h3.6a1.5,1.5,0,0,0-.3-1.3m5.4,2c0,.5-.1,1-.1,1.5a.9.9,0,0,1-.7.6h-7.8a2.4,2.4,0,0,0,1.4,1.2,6.2,6.2,0,0,0,2.5.5,15.5,15.5,0,0,0,3.1-.3.6.6,0,0,1,.8.6v2.6a.7.7,0,0,1-.5.7,15.3,15.3,0,0,1-4.5.6,14.2,14.2,0,0,1-4.2-.7,6.8,6.8,0,0,1-3.1-2.5,7,7,0,0,1-1.3-4.2,8.1,8.1,0,0,1,.7-3.3,5.5,5.5,0,0,1,1.9-2.3,10.1,10.1,0,0,1,2.3-1.2,10.9,10.9,0,0,1,2.5-.4,7.8,7.8,0,0,1,3.1.6,6.7,6.7,0,0,1,2.2,1.3,7.4,7.4,0,0,1,1.3,2.1,7.5,7.5,0,0,1,.4,2.6m-16.6-6.4a4.8,4.8,0,0,0-4.5,1.9v-.9a.7.7,0,0,0-.7-.7h-3.8a.7.7,0,0,0-.7.7V27.3a.7.7,0,0,0,.7.7h4.6a.7.7,0,0,0,.7-.7V20.4a3.1,3.1,0,0,1,1.9-.8h1.6a.6.6,0,0,0,.8-.6V14.7a.6.6,0,0,0-.6-.6m-30.7,9.4h-.9c-1,0-1.6-.4-1.6-1.3V19.2h2.4a.8.8,0,0,0,.7-.7V15.1a.7.7,0,0,0-.7-.7h-2.4V10.2a.7.7,0,0,0-.8-.7l-4.6,1.1a.7.7,0,0,0-.6.7v3.1h-1.2a.7.7,0,0,0-.7.7v3.4a.8.8,0,0,0,.7.7h1.2v4.1c0,1.9.5,3.2,1.6,4a6,6,0,0,0,3.8,1.2,12.4,12.4,0,0,0,3.3-.4.9.9,0,0,0,.6-.7V24.2a.8.8,0,0,0-.8-.7m-13.3-9.1h-4.6a.7.7,0,0,0-.7.7v7.7a2,2,0,0,1-1.6.7,1.3,1.3,0,0,1-1.1-1.3V15.1a.8.8,0,0,0-.7-.7h-4.7a.7.7,0,0,0-.6.7v8.1a5.4,5.4,0,0,0,1.3,3.7,4.7,4.7,0,0,0,3.9,1.6,5.8,5.8,0,0,0,4.2-1.8v.6a.8.8,0,0,0,.8.7h3.8a.7.7,0,0,0,.7-.7V15.1a.7.7,0,0,0-.7-.7m-16-6.3a8.5,8.5,0,0,0-2.9-.4,7.1,7.1,0,0,0-2.1.3,4.6,4.6,0,0,0-1.9.8,3.7,3.7,0,0,0-1.4,1.8,5.3,5.3,0,0,0-.5,2.6v1.2h-1.3a.7.7,0,0,0-.7.7v3.4a.8.8,0,0,0,.7.7h1.3v8.1a.7.7,0,0,0,.6.7h4.7a.7.7,0,0,0,.6-.7V19.2h2.3a.8.8,0,0,0,.7-.7V15.1a.7.7,0,0,0-.7-.7h-2.3v-.7c0-.9.6-1.4,1.7-1.4h.9c.4.2.8-.2.8-.6V8.7a.6.6,0,0,0-.5-.6M37.5,13.9A5.5,5.5,0,0,0,34,15.1V8.8a.7.7,0,0,0-.7-.7H28.7a.7.7,0,0,0-.7.7V27.3a.7.7,0,0,0,.7.7h4.6a.7.7,0,0,0,.7-.7V19.6a2,2,0,0,1,1.6-.7,1.4,1.4,0,0,1,1.2,1.3v7.1a.7.7,0,0,0,.6.7h4.7a.7.7,0,0,0,.6-.7V19.2a5.4,5.4,0,0,0-1.3-3.7,4.7,4.7,0,0,0-3.9-1.6m118.6,0a5.5,5.5,0,0,0-3.5,1.2V8.8a.7.7,0,0,0-.7-.7h-4.6a.7.7,0,0,0-.7.7V27.3a.7.7,0,0,0,.7.7h4.6a.7.7,0,0,0,.7-.7V19.6a2,2,0,0,1,1.6-.7,1.3,1.3,0,0,1,1.1,1.3v7.1a.8.8,0,0,0,.7.7h4.6a.7.7,0,0,0,.7-.7V19.2a5.4,5.4,0,0,0-1.3-3.7,4.7,4.7,0,0,0-3.9-1.6m-37.2,5.7a2.1,2.1,0,0,0-1.8-1,1.8,1.8,0,0,0-1.5.8,2.3,2.3,0,0,0-.5,1.7,2.7,2.7,0,0,0,.5,1.8,2,2,0,0,0,1.5.7,1.9,1.9,0,0,0,1.8-1Zm5.9-4.5v12c0,2.6-.8,4.6-2.3,5.8a9.7,9.7,0,0,1-6,1.8,14.8,14.8,0,0,1-5.7-1,.6.6,0,0,1-.5-.6V29.7a.7.7,0,0,1,1-.6,10.7,10.7,0,0,0,4.1.8c2.3,0,3.5-.8,3.5-2.4v-.6a5.8,5.8,0,0,1-3.8,1.3,5.4,5.4,0,0,1-4.6-2.1,7.6,7.6,0,0,1-1.6-5.1,7.5,7.5,0,0,1,1.6-5,5.4,5.4,0,0,1,4.6-2.1,5.4,5.4,0,0,1,4.5,2.1v-.9a.7.7,0,0,1,.7-.7h3.8a.7.7,0,0,1,.7.7m-23.5-1.2a5.8,5.8,0,0,0-4.2,1.8v-.6a.7.7,0,0,0-.7-.7H92.5a.8.8,0,0,0-.7.7V27.3a.8.8,0,0,0,.7.7h4.6a.7.7,0,0,0,.7-.7V19.6a2.1,2.1,0,0,1,1.6-.7,1.4,1.4,0,0,1,1.2,1.3v7.1a.7.7,0,0,0,.7.7h4.6a.8.8,0,0,0,.7-.7V19.2a5.5,5.5,0,0,0-1.4-3.7,4.6,4.6,0,0,0-3.9-1.6m-13.1.5H83.6a.7.7,0,0,0-.7.7V27.3a.7.7,0,0,0,.7.7h4.6a.7.7,0,0,0,.7-.7V15.1a.7.7,0,0,0-.7-.7m-.1-6.6A3.5,3.5,0,0,0,85.9,7a3.6,3.6,0,0,0-2.3.8,2.7,2.7,0,0,0-.9,2.2,2.7,2.7,0,0,0,.9,2.2,3.6,3.6,0,0,0,2.3.8,3.5,3.5,0,0,0,2.2-.8A2.7,2.7,0,0,0,89,10a2.7,2.7,0,0,0-.9-2.2M74.3,21.2a2.9,2.9,0,0,0-.5-1.7,1.9,1.9,0,0,0-1.6-.8,1.7,1.7,0,0,0-1.7,1v3a1.3,1.3,0,0,0,.6.7,2.3,2.3,0,0,0,1.1.3,1.9,1.9,0,0,0,1.6-.8,2.9,2.9,0,0,0,.5-1.7M78.9,16a8.9,8.9,0,0,1,1.5,5.2,8.9,8.9,0,0,1-1.5,5.2,5.7,5.7,0,0,1-4.7,2.1,5.5,5.5,0,0,1-3.7-1.3v6.4a.7.7,0,0,1-.7.7H65.2a.7.7,0,0,1-.7-.7V15.1a.7.7,0,0,1,.7-.7H69a.7.7,0,0,1,.7.7V16a5.5,5.5,0,0,1,4.5-2.1A5.7,5.7,0,0,1,78.9,16m-54,3.5a7,7,0,0,1,.5,2.5c0,4.3-2.8,6.5-8.3,6.5a16.7,16.7,0,0,1-7.6-1.7.7.7,0,0,1-.3-.6V21.9a.7.7,0,0,1,1-.6A12.9,12.9,0,0,0,16.4,23l1.8-.2a.9.9,0,0,0,.5-.8c0-.3-.3-.6-.8-.8a5.4,5.4,0,0,0-1.7-.7,12.7,12.7,0,0,1-2.4-.7l-2.3-1.2a5.5,5.5,0,0,1-1.8-1.9A5.4,5.4,0,0,1,9,13.8a5,5,0,0,1,2.2-4.5,9.1,9.1,0,0,1,5.6-1.6,16,16,0,0,1,6.9,1.4.7.7,0,0,1,.4.7v4a.7.7,0,0,1-1,.6,11.8,11.8,0,0,0-5.6-1.3c-1.2,0-1.7.3-1.7.9s.1.5.5.7l1.4.6,1.9.5,2,.8a7.6,7.6,0,0,1,1.9,1.2,4.7,4.7,0,0,1,1.4,1.7" transform="translate(-9 -7)"></path> </svg>